# xmcd
#
# Track frame offsets:
#	150
#	12942
#	28267
#	37547
#	46168
#	56251
#	67026
#	76554
#	85841
#	97046
#	110246
#	120664
#
# Disc length: 1772 seconds
#
# Revision: 0
# Processed by: cddbd v1.4PL0 Copyright (c) Steve Scherf et al.
# Submitted via: audiograbber 1.81.03
#
DISCID=8c06ea0c
DTITLE=El Lobito De Sinaloa - "Te Caiste Del Cielo" "Ay Amor"
DYEAR=2000
DGENRE=Latin
TTITLE0=Te Caiste Del Cielo
TTITLE1=Hay Amor
TTITLE2=A La Ligera
TTITLE3=Lindos Momentos
TTITLE4=Yo Fui El Que Mato A Mi Novia
TTITLE5=Tierra De La Raza Pesada
TTITLE6=Como La Hormiga
TTITLE7=Ingrato Amor
TTITLE8=Tu Solo Tu
TTITLE9=Señora Tentacion
TTITLE10=Regalo Divino
TTITLE11=El Borrador
EXTD=Carlos_Mp3s
EXTT0=
EXTT1=
EXTT2=
EXTT3=
EXTT4=
EXTT5=
EXTT6=
EXTT7=
EXTT8=
EXTT9=
EXTT10=
EXTT11=
PLAYORDER=
